<?xml version="1.0" standalone="no"?>
<!DOCTYPE svg PUBLIC "-//W3C//DTD SVG 20010904//EN"
 "http://www.w3.org/TR/2001/REC-SVG-20010904/DTD/svg10.dtd">
<svg version="1.0" xmlns="http://www.w3.org/2000/svg"
 width="365.000000pt" height="365.000000pt" viewBox="0 0 365.000000 365.000000"
 preserveAspectRatio="xMidYMid meet">
<metadata>
Created by potrace 1.11, written by Peter Selinger 2001-2013
</metadata>
<g transform="translate(0.000000,365.000000) scale(0.100000,-0.100000)"
fill="#000000" stroke="none">
<path d="M1772 3029 c-534 -48 -968 -394 -1118 -894 -21 -70 -27 -110 -27
-180 1 -200 74 -434 191 -614 20 -31 39 -58 42 -61 27 -25 70 -92 65 -100 -3
-5 -3 -15 1 -21 6 -11 13 -79 17 -174 0 -22 -2 -49 -7 -60 -6 -16 -6 -17 3 -5
9 12 11 10 11 -13 0 -20 -4 -26 -12 -21 -30 19 83 -104 139 -150 220 -183 532
-286 867 -286 345 0 632 97 879 297 37 31 67 59 67 63 0 6 -447 548 -486 590
-12 12 -19 9 -54 -27 -93 -97 -191 -142 -325 -150 -159 -10 -282 34 -384 136
-102 103 -151 229 -151 395 0 105 18 183 70 293 90 194 280 369 532 491 48 23
98 42 111 42 31 0 56 42 38 64 -9 11 -9 15 1 18 9 3 3 25 -20 76 -18 40 -32
80 -32 90 0 9 -11 48 -24 87 -13 38 -22 73 -20 77 3 4 -10 6 -28 3 -32 -5 -32
-5 -5 4 16 6 35 7 42 5 7 -3 15 -2 18 3 3 5 -2 10 -11 10 -9 1 -57 7 -107 12
-105 11 -156 11 -283 0z"/>
<path d="M2665 2689 c-129 -13 -269 -41 -348 -71 -29 -11 -73 -81 -62 -98 3
-6 1 -10 -4 -10 -6 0 -11 -7 -11 -15 0 -8 -9 -42 -21 -75 -11 -34 -18 -67 -15
-75 3 -8 1 -15 -5 -15 -5 0 -14 -11 -20 -24 -6 -13 -21 -28 -32 -33 -20 -9
-18 -11 18 -23 70 -22 117 -51 173 -103 46 -44 56 -49 65 -36 12 15 448 540
475 572 14 16 11 17 -54 16 -38 -1 -109 -6 -159 -10z"/>
</g>
</svg>
